<svg width="127" height="132" viewBox="0 0 127 132" fill="none" xmlns="http://www.w3.org/2000/svg">
<path d="M32.2764 15.0791C37.6275 11.7103 43.7543 12.0556 49.7881 12.0557C49.8019 12.0557 50.5015 12.0889 51.1885 12.1367C51.5324 12.1607 51.8748 12.1887 52.1279 12.2178C52.2542 12.2323 52.3598 12.2473 52.4326 12.2627C52.4683 12.2702 52.4995 12.2777 52.5215 12.2871C52.5318 12.2915 52.5451 12.2988 52.5557 12.3096C52.5613 12.3153 52.5688 12.3243 52.5723 12.3369L52.5684 12.377C52.5355 12.4452 52.4673 12.4957 52.3848 12.5332C52.301 12.5713 52.1945 12.6001 52.0752 12.6221C51.8363 12.666 51.5345 12.6836 51.2295 12.6885C50.9241 12.6934 50.6129 12.6853 50.3535 12.6758C50.0927 12.6662 49.8865 12.6553 49.7881 12.6553C43.5749 12.6553 38.2871 13.6547 33.8242 18.4756C28.9998 23.6897 27.2064 31.2283 28.7734 38.1123L28.9297 38.752C30.6529 45.3399 35.5352 51.0914 42.1768 53.0537C44.0802 53.6142 46.116 53.7549 48.1699 53.7549C49.1968 53.7549 50.2282 53.7197 51.249 53.6846C52.2694 53.6494 53.2803 53.6133 54.2656 53.6133C54.2846 53.6135 54.9808 53.6477 55.665 53.6953C56.0088 53.7192 56.3514 53.7463 56.6045 53.7754C56.7306 53.7899 56.8364 53.805 56.9092 53.8203C56.9449 53.8278 56.976 53.8363 56.998 53.8457C57.0083 53.8501 57.0216 53.8574 57.0322 53.8682C57.0379 53.8739 57.0454 53.8829 57.0488 53.8955L57.0479 53.8975L57.0498 53.8984V53.9141H57.0469C57.0464 53.9212 57.0479 53.9282 57.0449 53.9346L57.0361 53.9326C57.0011 53.9939 56.9383 54.0402 56.8613 54.0752C56.7776 54.1132 56.6711 54.1421 56.5518 54.1641C56.313 54.208 56.0119 54.2265 55.707 54.2314C55.4015 54.2363 55.0896 54.2283 54.8301 54.2188C54.5695 54.2092 54.3641 54.1983 54.2656 54.1982C49.4739 54.1982 44.4262 54.5965 39.6631 53.877C31.4215 52.6313 25.0463 46.1691 23.2139 38.127C21.2329 29.4671 24.6466 19.8888 32.2764 15.0791Z" fill="#191919" stroke="#191919" stroke-width="0.1"/>
<path d="M60.7578 11.8916C61.2658 11.8916 62.7959 11.8955 64.1992 11.9443C64.9005 11.9688 65.5714 12.0045 66.0674 12.0566C66.3148 12.0827 66.5211 12.1128 66.666 12.1484C66.7381 12.1662 66.7988 12.1863 66.8418 12.209C66.8631 12.2202 66.8825 12.2338 66.8975 12.25C66.9129 12.2668 66.9258 12.2892 66.9258 12.3164V95.7266H75.1885C77.1254 95.7266 79.1639 95.9216 81.083 95.7266C85.8938 95.2282 90.367 92.0587 93.1973 88.2773C99.0592 80.4432 98.9501 68.9515 92.8936 61.2578C90.0401 57.6403 85.6831 54.7121 81.0195 54.2139C79.8432 54.0893 78.6331 54.0889 77.4199 54.1201C76.2078 54.1513 74.9901 54.2139 73.8057 54.2139C73.7854 54.2135 73.0898 54.1804 72.4062 54.1328C72.0624 54.1089 71.7199 54.0808 71.4668 54.0518C71.3407 54.0373 71.2349 54.0222 71.1621 54.0068C71.1263 53.9993 71.0953 53.9909 71.0732 53.9814C71.063 53.9771 71.0496 53.9705 71.0391 53.96C71.0335 53.9543 71.0259 53.9451 71.0225 53.9326C71.0187 53.9188 71.0207 53.9046 71.0264 53.8926V53.8916C71.0593 53.8235 71.1275 53.7738 71.21 53.7363C71.2937 53.6983 71.4002 53.6694 71.5195 53.6475C71.7583 53.6035 72.0594 53.585 72.3643 53.5801C72.6698 53.5752 72.9817 53.5842 73.2412 53.5938C73.5017 53.6033 73.7072 53.6133 73.8057 53.6133C76.8959 53.6133 80.1246 53.4412 83.2793 53.6543C86.4347 53.8674 89.5239 54.4667 92.3447 56.0098H92.3457L92.3613 56.0176L92.3623 56.0186C100.287 60.3548 103.671 69.2036 102.81 77.499C101.948 85.795 96.8405 93.5495 87.7715 95.6924C83.2793 96.7489 78.331 96.3262 73.7666 96.3262H59.5859C59.5705 96.3261 58.8717 96.2929 58.1855 96.2451C57.842 96.2212 57.5001 96.1941 57.2471 96.165C57.1211 96.1506 57.0152 96.1354 56.9424 96.1201C56.9068 96.1126 56.8755 96.1041 56.8535 96.0947C56.8432 96.0903 56.8289 96.083 56.8184 96.0723C56.8128 96.0665 56.8061 96.0573 56.8027 96.0449C56.799 96.0312 56.8001 96.0169 56.8057 96.0049H56.8066C56.8396 95.9366 56.9076 95.8862 56.9902 95.8486C57.0739 95.8107 57.1798 95.7827 57.2988 95.7607C57.5377 95.7168 57.8395 95.6983 58.1445 95.6934C58.4501 95.6885 58.762 95.6965 59.0215 95.7061C59.2821 95.7156 59.4876 95.7266 59.5859 95.7266H61.3564V12.4834C60.9636 12.4837 60.1571 12.4866 59.4355 12.4707C59.0588 12.4624 58.7041 12.4495 58.4434 12.4277C58.3133 12.4169 58.2046 12.4036 58.1279 12.3877C58.0901 12.3798 58.0568 12.3706 58.0322 12.3594C58.0201 12.3538 58.0068 12.3461 57.9961 12.3359C57.9852 12.3255 57.9736 12.3084 57.9736 12.2852C57.9736 12.2502 57.9939 12.2239 58.0146 12.2061C58.0357 12.188 58.0635 12.1725 58.0947 12.1592C58.1578 12.1323 58.2465 12.1085 58.3506 12.0869C58.5596 12.0435 58.8434 12.0074 59.1455 11.9785C59.7503 11.9208 60.4356 11.8916 60.7578 11.8916Z" fill="#191919" stroke="#191919" stroke-width="0.1"/>
<path d="M120.82 122.728L123.047 117.396C123.367 116.614 123.527 116.181 123.527 116.095C123.527 115.704 123.094 115.501 122.227 115.485V114.946H125.602V115.485C125.078 115.509 124.695 115.649 124.453 115.907C124.211 116.157 123.91 116.716 123.551 117.583L119.273 127.907C118.867 128.892 118.508 129.56 118.195 129.911C117.883 130.271 117.539 130.45 117.164 130.45C116.656 130.45 116.402 130.22 116.402 129.759C116.402 129.228 116.809 128.778 117.621 128.411C118.098 128.2 118.414 128.021 118.57 127.872C118.734 127.724 118.895 127.454 119.051 127.063L119.965 124.778L116.355 117.044C116.035 116.364 115.77 115.935 115.559 115.755C115.348 115.575 114.988 115.485 114.48 115.485V114.946H118.887V115.485C118.113 115.509 117.727 115.669 117.727 115.966C117.727 116.083 117.879 116.466 118.184 117.114L120.82 122.728Z" fill="#191919"/>
<path d="M114.176 115.485H111.281V121.286C111.281 122.177 111.32 122.778 111.398 123.091C111.477 123.396 111.641 123.642 111.891 123.829C112.148 124.017 112.422 124.11 112.711 124.11C113.273 124.11 113.762 123.79 114.176 123.149L114.551 123.372C114.309 123.888 113.949 124.278 113.473 124.544C113.004 124.802 112.527 124.931 112.043 124.931C111.48 124.931 110.984 124.767 110.555 124.438C110.133 124.103 109.867 123.712 109.758 123.267C109.656 122.821 109.605 122.04 109.605 120.923V115.485H108.211V114.946C108.852 114.931 109.426 114.661 109.934 114.138C110.441 113.614 110.766 112.88 110.906 111.935H111.281V114.946H114.176V115.485Z" fill="#191919"/>
<path d="M105.504 114.946V121.239C105.504 122.286 105.52 122.942 105.551 123.208C105.582 123.474 105.695 123.673 105.891 123.806C106.094 123.938 106.453 124.005 106.969 124.005V124.544C105.781 124.56 104.914 124.685 104.367 124.919H104.227C103.977 124.489 103.844 123.747 103.828 122.692C103.352 123.435 102.805 123.993 102.188 124.368C101.578 124.743 100.902 124.931 100.16 124.931C99.5195 124.931 98.9531 124.786 98.4609 124.497C97.9688 124.2 97.6289 123.841 97.4414 123.419C97.2617 122.997 97.1719 122.36 97.1719 121.509V118.239C97.1719 117.13 97.1523 116.454 97.1133 116.212C97.0742 115.962 96.9492 115.778 96.7383 115.661C96.5352 115.544 96.1562 115.485 95.6016 115.485V114.946H98.8594V121.603C98.8594 122.259 98.8984 122.735 98.9766 123.032C99.0547 123.329 99.2539 123.591 99.5742 123.817C99.8945 124.036 100.266 124.146 100.688 124.146C101.289 124.146 101.863 123.95 102.41 123.56C102.957 123.161 103.328 122.743 103.523 122.306C103.727 121.86 103.828 121.228 103.828 120.407V118.239C103.828 117.192 103.816 116.556 103.793 116.329C103.77 116.103 103.668 115.907 103.488 115.743C103.316 115.571 102.953 115.485 102.398 115.485H102.152V114.946H105.504Z" fill="#191919"/>
<path d="M94.3945 122.786H94.8281C94.7578 124.122 94.1016 124.79 92.8594 124.79C92.3281 124.79 91.9062 124.649 91.5938 124.368C91.2891 124.087 91.0898 123.669 90.9961 123.114C90.2148 123.669 89.5 124.087 88.8516 124.368C88.2109 124.649 87.6367 124.79 87.1289 124.79C86.4805 124.79 85.9219 124.603 85.4531 124.228C84.9844 123.853 84.75 123.356 84.75 122.739C84.75 121.935 85.1406 121.231 85.9219 120.63C86.7109 120.028 87.7969 119.442 89.1797 118.872L90.9961 118.134V117.665C90.9961 117.001 90.9531 116.521 90.8672 116.224C90.7812 115.927 90.5586 115.661 90.1992 115.427C89.8398 115.192 89.3672 115.075 88.7812 115.075C87.6094 115.075 86.957 115.466 86.8242 116.247C86.6992 117.044 86.3711 117.442 85.8398 117.442C85.3633 117.442 85.125 117.216 85.125 116.763C85.125 116.317 85.4414 115.841 86.0742 115.333C86.707 114.817 87.6914 114.56 89.0273 114.56C90.0195 114.56 90.7891 114.716 91.3359 115.028C91.8828 115.341 92.2422 115.696 92.4141 116.095C92.5938 116.493 92.6836 117.103 92.6836 117.923V121.802C92.6836 122.708 92.7305 123.29 92.8242 123.548C92.918 123.806 93.1211 123.935 93.4336 123.935C93.9492 123.935 94.2695 123.552 94.3945 122.786ZM90.9961 118.685L89.7188 119.2C87.7031 120.021 86.6953 121.052 86.6953 122.294C86.6953 122.786 86.8242 123.185 87.082 123.489C87.3398 123.786 87.6758 123.935 88.0898 123.935C88.457 123.935 88.8828 123.813 89.3672 123.571C89.8516 123.329 90.3945 122.966 90.9961 122.481V118.685Z" fill="#191919"/>
<path d="M82.9102 118.192H76.2188C76.1875 118.653 76.1719 118.997 76.1719 119.224C76.1719 120.911 76.4336 122.181 76.957 123.032C77.4883 123.876 78.2773 124.298 79.3242 124.298C80.7461 124.298 81.7539 123.661 82.3477 122.388H82.9102C82.6602 123.185 82.1641 123.81 81.4219 124.263C80.6797 124.708 79.8711 124.931 78.9961 124.931C78.1836 124.931 77.4141 124.728 76.6875 124.321C75.9688 123.907 75.3789 123.325 74.918 122.575C74.457 121.825 74.2266 120.915 74.2266 119.845C74.2266 118.329 74.6719 117.071 75.5625 116.071C76.4531 115.063 77.5664 114.56 78.9023 114.56C80.1602 114.56 81.1328 114.942 81.8203 115.708C82.5078 116.474 82.8711 117.302 82.9102 118.192ZM80.8594 117.724C80.8828 117.544 80.8945 117.384 80.8945 117.243C80.8945 116.556 80.6914 116.024 80.2852 115.649C79.8867 115.267 79.3945 115.075 78.8086 115.075C77.3867 115.075 76.5391 115.958 76.2656 117.724H80.8594Z" fill="#191919"/>
<path d="M66.9141 115.989C68.7188 116.122 70.0586 116.571 70.9336 117.337C71.8086 118.103 72.2461 119.06 72.2461 120.208C72.2461 121.208 71.9492 122.071 71.3555 122.798C70.7617 123.517 70 123.989 69.0703 124.216C68.1484 124.435 66.9102 124.544 65.3555 124.544H59.1211V124.005H59.7305C60.4102 124.005 60.8789 123.919 61.1367 123.747C61.4023 123.575 61.5703 123.31 61.6406 122.95C61.7109 122.583 61.7461 121.735 61.7461 120.407V112.673C61.7461 111.384 61.707 110.552 61.6289 110.177C61.5586 109.802 61.4023 109.544 61.1602 109.403C60.9258 109.263 60.4062 109.192 59.6016 109.192H59.2969V108.653L61.9102 108.583L64.8867 108.489C69.2305 108.489 71.4023 109.739 71.4023 112.239C71.4023 113.271 71.0273 114.099 70.2773 114.724C69.5352 115.349 68.4141 115.771 66.9141 115.989ZM64.043 115.767C64.2383 115.774 64.4023 115.778 64.5352 115.778C66.2227 115.778 67.375 115.513 67.9922 114.981C68.6094 114.45 68.918 113.591 68.918 112.403C68.918 111.575 68.7969 110.935 68.5547 110.481C68.3125 110.028 67.9492 109.681 67.4648 109.438C66.9805 109.188 66.1523 109.063 64.9805 109.063C64.6758 109.063 64.3633 109.075 64.043 109.099V115.767ZM64.043 116.341V119.88C64.043 121.388 64.0703 122.345 64.125 122.751C64.1797 123.157 64.3242 123.466 64.5586 123.677C64.8008 123.888 65.2734 123.993 65.9766 123.993C67.2266 123.993 68.1641 123.673 68.7891 123.032C69.4141 122.392 69.7266 121.431 69.7266 120.149C69.7266 118.837 69.3711 117.872 68.6602 117.255C67.957 116.63 66.7148 116.317 64.9336 116.317C64.6523 116.317 64.3555 116.325 64.043 116.341Z" fill="#191919"/>
<path d="M51.8789 122.786H52.3125C52.2422 124.122 51.5859 124.79 50.3438 124.79C49.8125 124.79 49.3906 124.649 49.0781 124.368C48.7734 124.087 48.5742 123.669 48.4805 123.114C47.6992 123.669 46.9844 124.087 46.3359 124.368C45.6953 124.649 45.1211 124.79 44.6133 124.79C43.9648 124.79 43.4062 124.603 42.9375 124.228C42.4688 123.853 42.2344 123.356 42.2344 122.739C42.2344 121.935 42.625 121.231 43.4062 120.63C44.1953 120.028 45.2812 119.442 46.6641 118.872L48.4805 118.134V117.665C48.4805 117.001 48.4375 116.521 48.3516 116.224C48.2656 115.927 48.043 115.661 47.6836 115.427C47.3242 115.192 46.8516 115.075 46.2656 115.075C45.0938 115.075 44.4414 115.466 44.3086 116.247C44.1836 117.044 43.8555 117.442 43.3242 117.442C42.8477 117.442 42.6094 117.216 42.6094 116.763C42.6094 116.317 42.9258 115.841 43.5586 115.333C44.1914 114.817 45.1758 114.56 46.5117 114.56C47.5039 114.56 48.2734 114.716 48.8203 115.028C49.3672 115.341 49.7266 115.696 49.8984 116.095C50.0781 116.493 50.168 117.103 50.168 117.923V121.802C50.168 122.708 50.2148 123.29 50.3086 123.548C50.4023 123.806 50.6055 123.935 50.918 123.935C51.4336 123.935 51.7539 123.552 51.8789 122.786ZM48.4805 118.685L47.2031 119.2C45.1875 120.021 44.1797 121.052 44.1797 122.294C44.1797 122.786 44.3086 123.185 44.5664 123.489C44.8242 123.786 45.1602 123.935 45.5742 123.935C45.9414 123.935 46.3672 123.813 46.8516 123.571C47.3359 123.329 47.8789 122.966 48.4805 122.481V118.685Z" fill="#191919"/>
<path d="M39.2227 108.431V121.251C39.2227 122.274 39.2344 122.919 39.2578 123.185C39.2891 123.45 39.4023 123.653 39.5977 123.794C39.793 123.935 40.1406 124.005 40.6406 124.005H40.9219V124.544H35.7891V124.005H36.1172C36.5859 124.005 36.918 123.942 37.1133 123.817C37.3164 123.685 37.4375 123.501 37.4766 123.267C37.5156 123.032 37.5352 122.36 37.5352 121.251V111.759C37.5352 110.751 37.4453 110.118 37.2656 109.86C37.0859 109.595 36.6484 109.462 35.9531 109.462V108.923C36.4297 108.923 36.9883 108.868 37.6289 108.759C38.2773 108.649 38.7227 108.54 38.9648 108.431H39.2227Z" fill="#191919"/>
<path d="M31.2656 117.009C31.5312 116.313 31.9609 115.731 32.5547 115.263C33.1562 114.794 33.7422 114.56 34.3125 114.56C34.8281 114.56 35.2344 114.72 35.5312 115.04C35.8281 115.36 35.9766 115.688 35.9766 116.024C35.9766 116.251 35.8984 116.446 35.7422 116.61C35.5938 116.774 35.4102 116.856 35.1914 116.856C34.8008 116.856 34.5039 116.567 34.3008 115.989C34.1602 115.599 33.9492 115.403 33.668 115.403C33.332 115.403 32.9297 115.634 32.4609 116.095C31.9922 116.548 31.6914 117.021 31.5586 117.513C31.4258 118.005 31.3594 118.681 31.3594 119.54V121.251C31.3594 122.274 31.3711 122.919 31.3945 123.185C31.4258 123.45 31.5391 123.653 31.7344 123.794C31.9297 123.935 32.2773 124.005 32.7773 124.005H33.1055V124.544H28.0078V124.005H28.2539C28.7227 124.005 29.0547 123.942 29.25 123.817C29.4531 123.685 29.5742 123.501 29.6133 123.267C29.6523 123.032 29.6719 122.36 29.6719 121.251V118.544C29.6719 117.513 29.6562 116.868 29.625 116.61C29.6016 116.345 29.4922 116.142 29.2969 116.001C29.1016 115.853 28.7539 115.778 28.2539 115.778H28.0078V115.251C28.7422 115.165 29.7031 114.935 30.8906 114.56C31.1172 115.177 31.2422 115.993 31.2656 117.009Z" fill="#191919"/>
<path d="M26.5898 122.786H27.0234C26.9531 124.122 26.2969 124.79 25.0547 124.79C24.5234 124.79 24.1016 124.649 23.7891 124.368C23.4844 124.087 23.2852 123.669 23.1914 123.114C22.4102 123.669 21.6953 124.087 21.0469 124.368C20.4062 124.649 19.832 124.79 19.3242 124.79C18.6758 124.79 18.1172 124.603 17.6484 124.228C17.1797 123.853 16.9453 123.356 16.9453 122.739C16.9453 121.935 17.3359 121.231 18.1172 120.63C18.9062 120.028 19.9922 119.442 21.375 118.872L23.1914 118.134V117.665C23.1914 117.001 23.1484 116.521 23.0625 116.224C22.9766 115.927 22.7539 115.661 22.3945 115.427C22.0352 115.192 21.5625 115.075 20.9766 115.075C19.8047 115.075 19.1523 115.466 19.0195 116.247C18.8945 117.044 18.5664 117.442 18.0352 117.442C17.5586 117.442 17.3203 117.216 17.3203 116.763C17.3203 116.317 17.6367 115.841 18.2695 115.333C18.9023 114.817 19.8867 114.56 21.2227 114.56C22.2148 114.56 22.9844 114.716 23.5312 115.028C24.0781 115.341 24.4375 115.696 24.6094 116.095C24.7891 116.493 24.8789 117.103 24.8789 117.923V121.802C24.8789 122.708 24.9258 123.29 25.0195 123.548C25.1133 123.806 25.3164 123.935 25.6289 123.935C26.1445 123.935 26.4648 123.552 26.5898 122.786ZM23.1914 118.685L21.9141 119.2C19.8984 120.021 18.8906 121.052 18.8906 122.294C18.8906 122.786 19.0195 123.185 19.2773 123.489C19.5352 123.786 19.8711 123.935 20.2852 123.935C20.6523 123.935 21.0781 123.813 21.5625 123.571C22.0469 123.329 22.5898 122.966 23.1914 122.481V118.685Z" fill="#191919"/>
<path d="M13.9336 118.579H14.4375V124.146H13.9336C13.793 123.513 13.5391 122.954 13.1719 122.47C11.7734 124.048 9.98828 124.837 7.81641 124.837C5.51953 124.837 3.64062 124.11 2.17969 122.657C0.726562 121.204 0 119.282 0 116.892C0 115.321 0.335938 113.845 1.00781 112.462C1.67969 111.071 2.61719 110.04 3.82031 109.368C5.02344 108.696 6.34375 108.36 7.78125 108.36C8.96875 108.36 10.043 108.606 11.0039 109.099C11.9727 109.583 12.6953 110.122 13.1719 110.716C13.5078 110.052 13.7109 109.364 13.7812 108.653H14.2969L14.4375 114.677H13.9336C13.582 112.536 12.8633 111.048 11.7773 110.212C10.6992 109.376 9.48047 108.958 8.12109 108.958C6.45703 108.958 5.13281 109.634 4.14844 110.985C3.17188 112.337 2.68359 114.271 2.68359 116.786C2.68359 119.169 3.21875 120.997 4.28906 122.271C5.35938 123.536 6.69141 124.169 8.28516 124.169C9.13672 124.169 10.0078 123.962 10.8984 123.548C11.7891 123.134 12.4922 122.435 13.0078 121.45C13.5312 120.458 13.8398 119.501 13.9336 118.579Z" fill="#191919"/>
</svg>
