<svg width="32" height="24" viewBox="0 0 32 24" fill="none" xmlns="http://www.w3.org/2000/svg">
<path d="M8.88889 0L10.0444 1.86667C7.91111 3.28889 6.01481 4.94815 4.35556 6.84444C2.75556 8.74074 1.95556 11.0815 1.95556 13.8667C1.95556 14.9333 2.1037 15.9407 2.4 16.8889C2.6963 17.837 3.11111 18.1926 3.64444 17.9556C3.76296 17.8963 3.82222 17.8074 3.82222 17.6889C3.82222 17.5111 3.76296 17.3037 3.64444 17.0667C3.52593 16.7704 3.46667 16.4148 3.46667 16C3.46667 15.1704 3.88148 14.4296 4.71111 13.7778C5.6 13.0667 6.57778 12.7111 7.64444 12.7111C9.18518 12.7111 10.4296 13.2148 11.3778 14.2222C12.3852 15.1704 12.8889 16.4148 12.8889 17.9556C12.8889 19.6741 12.3556 21.0667 11.2889 22.1333C10.2222 23.2 8.82963 23.7333 7.11111 23.7333C4.97778 23.7333 3.25926 22.8741 1.95556 21.1556C0.651852 19.3778 0 17.0074 0 14.0444C0 10.4296 0.82963 7.61481 2.48889 5.6C4.20741 3.52593 6.34074 1.65926 8.88889 0ZM28 0L29.1556 1.86667C27.0222 3.28889 25.1259 4.94815 23.4667 6.84444C21.8667 8.74074 21.0667 11.0815 21.0667 13.8667C21.0667 14.9333 21.2148 15.9407 21.5111 16.8889C21.8074 17.837 22.2222 18.1926 22.7556 17.9556C22.8741 17.8963 22.9333 17.8074 22.9333 17.6889C22.9333 17.5111 22.8741 17.3037 22.7556 17.0667C22.637 16.7704 22.5778 16.4148 22.5778 16C22.5778 15.1704 22.9926 14.4296 23.8222 13.7778C24.7111 13.0667 25.6889 12.7111 26.7556 12.7111C28.2963 12.7111 29.5407 13.2148 30.4889 14.2222C31.4963 15.1704 32 16.4148 32 17.9556C32 19.6741 31.4667 21.0667 30.4 22.1333C29.3333 23.2 27.9407 23.7333 26.2222 23.7333C24.0889 23.7333 22.3704 22.8741 21.0667 21.1556C19.763 19.3778 19.1111 17.0074 19.1111 14.0444C19.1111 10.4296 19.9407 7.61481 21.6 5.6C23.3185 3.52593 25.4519 1.65926 28 0Z" fill="#E3B6B1"/>
</svg>
