<svg width="32" height="32" viewBox="0 0 32 32" fill="none" xmlns="http://www.w3.org/2000/svg">
<path d="M20.5237 24L20.7549 28.6875L16.0135 25.3926L11.2455 28.6906L11.4769 24H9.47442L9.1293 31.0001H11.4225L16.0109 27.8263L20.5779 31.0001H22.8713L22.5262 24H20.5237ZM25.9634 9.68217L25.8262 6.6788L23.294 5.05836L21.6733 2.52592L18.6699 2.38842L16.0003 1.00586L13.3307 2.38873L10.3273 2.52623L8.70655 5.05836L6.17436 6.6788L6.03723 9.68217L4.6543 12.3518L6.03723 15.0215L6.17473 18.0248L8.70655 19.6452L10.327 22.1777L13.3305 22.3149L16.0003 23.6978L18.6699 22.3149L21.6733 22.1777L23.2938 19.6452L25.8262 18.025L25.9634 15.0217L27.3463 12.352L25.9634 9.68217ZM23.9855 14.4915L23.8753 16.8986L21.8456 18.1974L20.5469 20.227L18.1397 20.337L16.0003 21.4454L13.8607 20.337L11.4535 20.227L10.1547 18.1974L8.1253 16.8986L8.01536 14.4915L6.90655 12.3518L8.01511 10.2125L8.1253 7.80505L10.1547 6.5063L11.4535 4.47667L13.8607 4.36667L16.0003 3.2583L18.1399 4.36661L20.5471 4.47661L21.8459 6.50623L23.8753 7.80505L23.9852 10.2122L25.094 12.3518L23.9855 14.4915Z" fill="#725A58"/>
</svg>
