<svg width="50" height="41" viewBox="0 0 50 41" fill="none" xmlns="http://www.w3.org/2000/svg">
<g clip-path="url(#clip0_6_681)">
<path d="M18.4091 -0.0214844C18.424 -0.0212271 18.7588 -0.00504449 19.0839 0.0175781C19.2484 0.0290332 19.4133 0.0425529 19.536 0.0566406C19.5966 0.0636042 19.6499 0.0710204 19.6884 0.0791016C19.7062 0.0828722 19.7273 0.0881662 19.745 0.0957031C19.7525 0.0989044 19.7704 0.107164 19.786 0.123047C19.7945 0.13172 19.8072 0.147419 19.8134 0.169922C19.82 0.194564 19.8164 0.22004 19.8065 0.241211V0.242188C19.7794 0.298403 19.7272 0.331743 19.6815 0.352539C19.6335 0.37435 19.5755 0.389343 19.5155 0.400391C19.3952 0.422513 19.2464 0.431224 19.0995 0.433594C18.9514 0.435971 18.8002 0.432309 18.6757 0.427734C18.5489 0.423073 18.4543 0.417991 18.4091 0.417969C15.447 0.417969 12.9446 0.894475 10.8319 3.17676C8.54361 5.65 7.69143 9.22768 8.43542 12.4961C9.17947 15.7496 11.5436 18.6234 14.7909 19.583C15.6906 19.848 16.6555 19.915 17.6346 19.915C18.1241 19.915 18.6161 19.8987 19.1044 19.8818C19.592 19.865 20.077 19.8486 20.5497 19.8486C20.567 19.849 20.8998 19.8652 21.2235 19.8877C21.3882 19.8992 21.5538 19.9117 21.6766 19.9258C21.7373 19.9327 21.7906 19.9402 21.829 19.9482C21.8469 19.952 21.8679 19.9573 21.8856 19.9648C21.8931 19.968 21.911 19.9763 21.9266 19.9922C21.9352 20.0009 21.9469 20.0166 21.953 20.0391C21.9549 20.0459 21.9545 20.0528 21.955 20.0596L21.9569 20.0605V20.0674H21.9559C21.9557 20.0824 21.9533 20.0973 21.9471 20.1104L21.9423 20.1094C21.9144 20.1619 21.8662 20.1948 21.8221 20.2148C21.7741 20.2367 21.7161 20.2516 21.6561 20.2627C21.5357 20.2848 21.3862 20.2935 21.2391 20.2959C21.0912 20.2983 20.9407 20.2936 20.8163 20.2891C20.6896 20.2844 20.5951 20.2803 20.5497 20.2803C18.2672 20.2803 15.8413 20.4711 13.5565 20.126C9.5825 19.5253 6.51126 16.4097 5.62878 12.5371C4.67524 8.36866 6.31732 3.75512 9.995 1.43652L10.2382 1.28906C12.761 -0.178662 15.6225 -0.0214844 18.4091 -0.0214844Z" fill="#E3B6B1" stroke="#E3B6B1" stroke-width="0.2"/>
<path d="M23.6532 -0.0996094C23.8962 -0.0996093 24.6293 -0.0986052 25.3016 -0.0751953C25.6373 -0.0635037 25.9603 -0.0457421 26.2001 -0.0205078C26.3191 -0.0079737 26.4216 0.00709773 26.496 0.0253906C26.5324 0.0343505 26.5687 0.0453305 26.5975 0.0605469C26.6117 0.06806 26.6292 0.0792735 26.6444 0.0957031C26.6605 0.113274 26.6776 0.142292 26.6776 0.179688V39.9824H30.5526C31.4894 39.9824 32.4502 40.0752 33.3632 39.9824C35.6364 39.7468 37.7573 38.247 39.1014 36.4512C41.8835 32.7332 41.8319 27.2772 38.9579 23.626C37.603 21.9084 35.5373 20.5218 33.3329 20.2861C32.7755 20.2271 32.2002 20.2273 31.621 20.2422C31.0444 20.257 30.4588 20.2871 29.8915 20.2871C29.8811 20.2871 29.5441 20.2708 29.2167 20.248C29.0521 20.2366 28.8873 20.2231 28.7645 20.209C28.7037 20.202 28.6497 20.1946 28.6112 20.1865C28.5933 20.1827 28.5722 20.1775 28.5546 20.1699C28.547 20.1667 28.53 20.1583 28.5145 20.1426C28.506 20.1339 28.4933 20.1182 28.4872 20.0957C28.4806 20.0713 28.4834 20.0464 28.493 20.0254L28.494 20.0234C28.5212 19.9673 28.5733 19.9338 28.619 19.9131C28.6669 19.8913 28.7242 19.8763 28.7841 19.8652C28.9045 19.8431 29.0539 19.8344 29.201 19.832C29.349 19.8297 29.4994 19.8333 29.6239 19.8379C29.7511 19.8426 29.8463 19.8477 29.8915 19.8477C31.3633 19.8477 32.9141 19.7651 34.4257 19.8672C35.9391 19.9694 37.4276 20.257 38.7889 21.001L38.8007 21.0068C42.6217 23.0979 44.248 27.3621 43.8339 31.3516C43.4196 35.3422 40.9603 39.0826 36.5858 40.1162C34.4267 40.6239 32.0455 40.4209 29.8729 40.4209H23.0927C23.0791 40.4207 22.7436 40.4045 22.4178 40.3818C22.2533 40.3704 22.0884 40.3578 21.9657 40.3438C21.905 40.3368 21.8518 40.3284 21.8134 40.3203C21.7953 40.3165 21.7735 40.3114 21.7557 40.3037C21.748 40.3004 21.7309 40.2927 21.7157 40.2773C21.7072 40.2687 21.6945 40.253 21.6884 40.2305C21.6817 40.2058 21.6853 40.1804 21.6952 40.1592V40.1582C21.7223 40.1019 21.7744 40.0687 21.8202 40.0479C21.8682 40.026 21.9262 40.011 21.9862 40C22.1065 39.9779 22.2553 39.9692 22.4022 39.9668C22.5501 39.9644 22.7006 39.9681 22.8251 39.9727C22.9522 39.9773 23.0474 39.9824 23.0927 39.9824H23.8632V0.333984C23.6592 0.334237 23.3236 0.335805 23.0194 0.329102C22.839 0.325123 22.667 0.319189 22.5399 0.308594C22.4773 0.303369 22.422 0.296607 22.3807 0.288086C22.3609 0.283977 22.3378 0.278466 22.3182 0.269531C22.3087 0.265175 22.2939 0.257247 22.2802 0.244141C22.273 0.237355 22.2646 0.227081 22.2577 0.213867L22.246 0.164062L22.2509 0.130859C22.2597 0.101 22.2785 0.0798366 22.2919 0.0683594C22.3104 0.0524802 22.3324 0.0418782 22.3505 0.0341797C22.3875 0.0184501 22.4352 0.00572113 22.4862 -0.00488281C22.5902 -0.0264892 22.7296 -0.0437466 22.8749 -0.0576172C23.1662 -0.0854278 23.4965 -0.0996094 23.6532 -0.0996094Z" fill="#E3B6B1" stroke="#E3B6B1" stroke-width="0.2"/>
</g>
<defs>
<clipPath id="clip0_6_681">
<rect width="50" height="40.6294" fill="white"/>
</clipPath>
</defs>
</svg>
