<svg width="30" height="24" viewBox="0 0 30 24" fill="none" xmlns="http://www.w3.org/2000/svg">
<g clip-path="url(#clip0_4115_1001)">
<path d="M10.874 -0.0130615C10.8831 -0.0128964 11.0806 -0.00297785 11.2725 0.010376C11.3697 0.0171446 11.4675 0.0245114 11.54 0.0328369C11.5758 0.0369514 11.6072 0.0417341 11.6299 0.0465088C11.6404 0.0487322 11.6526 0.0518365 11.6631 0.0562744C11.6675 0.0581667 11.6783 0.063481 11.6875 0.072876C11.6925 0.0780446 11.6996 0.0871629 11.7031 0.10022C11.7051 0.107455 11.7057 0.114673 11.7051 0.121704L11.6992 0.142212C11.6833 0.175311 11.6529 0.195333 11.626 0.207642C11.5976 0.220525 11.5628 0.229436 11.5273 0.235962C11.4562 0.249017 11.368 0.255077 11.2812 0.25647C11.1939 0.257861 11.1047 0.255262 11.0312 0.252563C10.9565 0.249813 10.9008 0.246719 10.874 0.246704C9.1245 0.246704 7.64632 0.52782 6.39844 1.87561C5.04667 3.33657 4.54293 5.45076 4.98242 7.38147C5.422 9.30336 6.81905 11.0012 8.7373 11.568C9.2687 11.7244 9.83871 11.7643 10.417 11.7643C10.7059 11.7643 10.996 11.7537 11.2842 11.7438C11.5722 11.7339 11.8594 11.7242 12.1387 11.7242C12.1509 11.7246 12.3469 11.7344 12.5371 11.7477C12.6341 11.7544 12.7313 11.7618 12.8037 11.7701C12.8396 11.7743 12.8718 11.779 12.8945 11.7838C12.9051 11.7861 12.9173 11.7891 12.9277 11.7936C12.9322 11.7955 12.9429 11.7999 12.9521 11.8092C12.9572 11.8143 12.9642 11.8235 12.9678 11.8365C12.9688 11.8404 12.9685 11.8445 12.9688 11.8483L12.9697 11.8492C12.9703 11.8596 12.968 11.8696 12.9639 11.8785L12.9609 11.8776C12.9445 11.909 12.9159 11.9282 12.8896 11.9401C12.8613 11.9529 12.8274 11.9619 12.792 11.9684C12.7208 11.9815 12.6328 11.9875 12.5459 11.9889C12.4585 11.9903 12.3694 11.9877 12.2959 11.985C12.2213 11.9822 12.1655 11.9792 12.1387 11.9791C10.7905 11.9791 9.35735 12.0921 8.00781 11.8883C5.66028 11.5335 3.84643 9.69255 3.3252 7.40491C2.76206 4.94258 3.73182 2.21777 5.9043 0.848267C7.42901 -0.11157 9.17498 -0.0130615 10.874 -0.0130615Z" fill="#535353" stroke="#535353" stroke-width="0.118141"/>
<path d="M14.9463 -0.0439453C15.1444 -0.0370449 15.3349 -0.0266063 15.4766 -0.0117188C15.547 -0.00430514 15.6084 0.00382229 15.6523 0.0146484C15.6738 0.0199325 15.6949 0.0271734 15.7119 0.0361328C15.7203 0.040608 15.7313 0.046857 15.7402 0.0566406C15.7496 0.066958 15.7596 0.0836866 15.7598 0.105469V23.6182H18.0479C18.6011 23.6182 19.1688 23.6729 19.708 23.6182C21.051 23.4791 22.3046 22.5931 23.0986 21.5322C24.742 19.3359 24.7105 16.1128 23.0127 13.9561C22.2124 12.9414 20.9926 12.1226 19.6904 11.9834C19.3612 11.9485 19.0217 11.9482 18.6797 11.957C18.339 11.9658 17.9924 11.9834 17.6572 11.9834C17.6452 11.9831 17.4491 11.9742 17.2588 11.9609C17.1618 11.9542 17.0646 11.9458 16.9922 11.9375C16.9563 11.9334 16.9241 11.9286 16.9014 11.9238C16.8908 11.9216 16.8786 11.9185 16.8682 11.9141C16.8637 11.9122 16.853 11.9078 16.8438 11.8984C16.8387 11.8933 16.8317 11.8842 16.8281 11.8711C16.8241 11.8565 16.8262 11.8417 16.832 11.8291V11.8281C16.8481 11.7948 16.8792 11.775 16.9062 11.7627C16.9346 11.7499 16.9686 11.7409 17.0039 11.7344C17.075 11.7213 17.1632 11.7162 17.25 11.7148C17.3374 11.7134 17.4265 11.716 17.5 11.7188C17.5746 11.7215 17.6304 11.7246 17.6572 11.7246C18.5266 11.7246 19.4431 11.676 20.3359 11.7363C21.2308 11.7968 22.1112 11.9659 22.916 12.4062H22.915L22.918 12.4082L22.9199 12.4092C25.1771 13.6444 26.1382 16.1629 25.8936 18.5195C25.6488 20.8768 24.1962 23.0857 21.6123 23.6963C20.3369 23.9963 18.9299 23.877 17.6465 23.877H13.6416C13.6344 23.8769 13.436 23.8679 13.2432 23.8545C13.1459 23.8477 13.0481 23.8394 12.9756 23.8311C12.9398 23.8269 12.9084 23.8222 12.8857 23.8174C12.8752 23.8152 12.863 23.8121 12.8525 23.8076C12.8481 23.8057 12.8374 23.8014 12.8281 23.792C12.8231 23.7869 12.8161 23.7778 12.8125 23.7646C12.8085 23.7502 12.8097 23.7352 12.8154 23.7227L12.8164 23.7217C12.8324 23.6886 12.8627 23.6685 12.8896 23.6562C12.9179 23.6434 12.952 23.6344 12.9873 23.6279C13.0583 23.6149 13.1466 23.6098 13.2334 23.6084C13.3207 23.607 13.4099 23.6096 13.4834 23.6123C13.5585 23.6151 13.6149 23.6182 13.6416 23.6182H14.0967V0.197266C13.9762 0.197415 13.7782 0.198288 13.5986 0.194336C13.4921 0.191987 13.3905 0.187893 13.3154 0.181641C13.2783 0.178542 13.2451 0.174987 13.2207 0.169922C13.2091 0.167519 13.196 0.164353 13.1846 0.15918C13.179 0.156654 13.1701 0.152053 13.1621 0.144531C13.1579 0.140482 13.1525 0.133901 13.1484 0.125977L13.1416 0.0966797L13.1514 0.0615234C13.1568 0.0522209 13.1637 0.0455234 13.1689 0.0410156C13.1799 0.0316023 13.1924 0.0250657 13.2031 0.0205078C13.225 0.0112029 13.2531 0.00334125 13.2832 -0.00292969C13.3446 -0.0156825 13.427 -0.0259893 13.5127 -0.0341797C13.6848 -0.0506071 13.8801 -0.0585933 13.9727 -0.0585938C14.1162 -0.0585938 14.5491 -0.057774 14.9463 -0.0439453Z" fill="#535353" stroke="#535353" stroke-width="0.118141"/>
</g>
<defs>
<clipPath id="clip0_4115_1001">
<rect width="29.5353" height="24" fill="white"/>
</clipPath>
</defs>
</svg>
