<svg width="166" height="164" viewBox="0 0 166 164" fill="none" xmlns="http://www.w3.org/2000/svg">
<path d="M9.66997 154.93C7.66929 154.93 5.9494 154.474 4.49276 153.544C3.05368 152.614 1.94803 151.35 1.15829 149.735C0.368547 148.121 0 146.261 0 144.155C0 142.593 0.263252 141.136 0.772198 139.82C1.28114 138.504 1.98314 137.363 2.89573 136.38C3.79077 135.397 4.84376 134.643 6.03715 134.099C7.23054 133.555 8.49413 133.291 9.84547 133.291C11.0389 133.291 12.0392 133.432 12.8114 133.695C13.5836 133.958 14.1627 134.186 14.5664 134.379C14.8296 134.502 15.0578 134.607 15.2684 134.695C15.479 134.783 15.6369 134.818 15.7071 134.818C15.9177 134.818 16.0932 134.73 16.2336 134.572C16.374 134.414 16.4618 134.116 16.4969 133.695H17.234L17.1813 137.135L17.234 140.574H16.4969C16.1985 138.539 15.4965 136.959 14.3733 135.836C13.2501 134.713 11.776 134.151 9.93322 134.151C8.63453 134.151 7.54644 134.414 6.66895 134.923C5.79146 135.45 5.07191 136.169 4.54541 137.082C4.01892 137.995 3.63282 139.048 3.38712 140.259C3.14142 141.469 3.01858 142.751 3.01858 144.137C3.01858 146.208 3.24673 147.963 3.68547 149.437C4.12422 150.911 4.86131 152.052 5.86165 152.842C6.87954 153.632 8.23089 154.035 9.95077 154.035C11.2319 154.035 12.3375 153.737 13.2852 153.158C14.2329 152.561 14.9876 151.789 15.5667 150.806C16.1459 149.823 16.4969 148.735 16.6197 147.559H17.3217L17.2691 151.157L17.3568 154.597H16.6548L16.5671 154.281C16.4793 154.018 16.3916 153.789 16.2863 153.561C16.181 153.333 15.9879 153.228 15.7422 153.228C15.6018 153.228 15.4439 153.263 15.2508 153.351C15.0578 153.438 14.8472 153.526 14.619 153.649C14.1101 153.912 13.4432 154.176 12.6184 154.491C11.7935 154.79 10.8283 154.948 9.70507 154.948L9.66997 154.93Z" fill="black"/>
<path d="M24.1304 154.93C23.1827 154.93 22.4105 154.684 21.7963 154.211C21.182 153.737 20.8661 153.052 20.8661 152.192C20.8661 151.332 21.2522 150.56 22.0069 149.876C22.7791 149.191 23.6741 148.577 24.692 148.033C25.4642 147.594 26.2189 147.226 26.991 146.91C27.7632 146.594 28.4126 146.331 28.9566 146.12V145.172C28.9566 144.102 28.7636 143.295 28.3599 142.75C27.9563 142.224 27.2016 141.961 26.0785 141.961C25.552 141.961 25.0255 142.031 24.5165 142.171C24.0076 142.312 23.7443 142.557 23.7443 142.944C23.7443 143.014 23.7443 143.101 23.797 143.207C23.8321 143.312 23.8496 143.4 23.8672 143.505C23.9725 143.768 24.0076 144.032 24.0076 144.295C24.0076 144.663 23.8672 144.962 23.6039 145.172C23.3407 145.383 23.0248 145.488 22.6387 145.488C22.2877 145.488 21.9893 145.365 21.7612 145.085C21.533 144.821 21.4102 144.505 21.4102 144.119C21.4102 143.417 21.6734 142.856 22.2175 142.435C22.7615 142.013 23.4284 141.715 24.2006 141.522C24.9904 141.329 25.745 141.241 26.4646 141.241C28.044 141.241 29.1848 141.61 29.9043 142.329C30.6239 143.049 30.9924 144.242 30.9924 145.892V151.192C30.9924 152.052 31.0626 152.719 31.1855 153.193C31.3083 153.667 31.6067 153.895 32.0454 153.895C32.3438 153.895 32.5894 153.789 32.8176 153.579C33.0282 153.368 33.1861 153.122 33.2563 152.877L33.7828 153.087C33.6249 153.649 33.3441 154.105 32.9404 154.439C32.5368 154.772 31.9752 154.948 31.2732 154.948C30.4133 154.948 29.8166 154.702 29.4831 154.193C29.1672 153.684 28.9742 153.035 28.9391 152.21C28.395 153.087 27.693 153.772 26.8506 154.246C26.0083 154.719 25.0781 154.948 24.0778 154.948L24.1304 154.93ZM23.1652 152.052C23.1652 152.596 23.3231 153.035 23.6566 153.368C23.9725 153.684 24.4639 153.86 25.0781 153.86C25.6397 153.86 26.2013 153.719 26.7102 153.456C27.2367 153.175 27.693 152.824 28.0791 152.403C28.4652 151.982 28.7636 151.525 28.9566 151.034V146.734C28.3073 147.015 27.6404 147.331 26.9735 147.7C26.2891 148.068 25.6748 148.472 25.0957 148.928C24.5165 149.384 24.0427 149.858 23.6917 150.385C23.3407 150.911 23.1652 151.473 23.1652 152.087V152.052Z" fill="black"/>
<path d="M34.6438 154.702V154.017L35.1176 153.965C35.6968 153.895 36.118 153.789 36.4339 153.684C36.7322 153.579 36.9428 153.333 37.0657 152.947C37.1885 152.561 37.2412 151.929 37.2412 151.052V144.927C37.2412 144.154 37.1359 143.593 36.9253 143.242C36.7147 142.891 36.4163 142.663 36.0302 142.575C35.6441 142.487 35.1703 142.435 34.6438 142.435V141.75C35.4511 141.75 36.2233 141.715 36.9779 141.662C37.715 141.61 38.5048 141.522 39.3121 141.399L38.9962 144.786H39.119C39.5578 143.47 40.0843 142.54 40.716 142.013C41.3478 141.487 42.0147 141.224 42.7518 141.224C43.5767 141.224 44.1207 141.417 44.4015 141.82C44.6823 142.224 44.8227 142.61 44.8227 142.979C44.8227 143.417 44.6999 143.768 44.4366 144.032C44.1734 144.312 43.8399 144.453 43.4012 144.453C42.9624 144.453 42.6816 144.348 42.4535 144.154C42.2429 143.961 42.1376 143.733 42.1376 143.47C42.1376 143.277 42.1551 143.084 42.2078 142.908C42.2604 142.733 42.278 142.593 42.278 142.487C42.278 142.294 42.1376 142.189 41.8568 142.189C41.576 142.189 41.2952 142.312 40.9793 142.575C40.6809 142.838 40.4177 143.189 40.2071 143.628C40.0316 143.997 39.8561 144.418 39.6982 144.856C39.5402 145.313 39.4174 145.804 39.3121 146.331V150.981C39.3121 151.859 39.3647 152.491 39.4876 152.877C39.6104 153.263 39.821 153.509 40.1194 153.614C40.4177 153.719 40.8564 153.807 41.4356 153.895L41.9094 153.947V154.632L38.2942 154.544L34.6789 154.632L34.6438 154.702Z" fill="black"/>
<path d="M45.8044 154.702V154.018L46.2783 153.965C46.8399 153.895 47.2786 153.789 47.5945 153.684C47.8929 153.579 48.1035 153.333 48.2263 152.947C48.3492 152.561 48.4018 151.929 48.4018 151.052V136.678C48.4018 135.66 48.1912 135.011 47.77 134.713C47.3488 134.432 46.7697 134.292 46.015 134.292H45.8044V133.607C46.6117 133.607 47.3839 133.59 48.1386 133.537C48.8932 133.484 49.6654 133.397 50.4727 133.256V151.052C50.4727 151.929 50.5254 152.561 50.6482 152.947C50.771 153.333 50.9816 153.579 51.28 153.684C51.5783 153.789 52.0171 153.877 52.5962 153.965L53.0701 154.018V154.702L49.4548 154.614L45.8395 154.702H45.8044Z" fill="black"/>
<path d="M58.2482 154.93C57.3005 154.93 56.5283 154.684 55.914 154.211C55.2998 153.737 54.9839 153.052 54.9839 152.192C54.9839 151.332 55.37 150.56 56.1246 149.876C56.8968 149.191 57.7919 148.577 58.8098 148.033C59.5819 147.594 60.3366 147.226 61.1088 146.91C61.881 146.594 62.5303 146.331 63.0744 146.12V145.172C63.0744 144.102 62.8813 143.295 62.4777 142.75C62.074 142.224 61.3194 141.961 60.1962 141.961C59.6697 141.961 59.1432 142.031 58.6343 142.171C58.1253 142.312 57.8621 142.557 57.8621 142.944C57.8621 143.014 57.8621 143.101 57.9147 143.207C57.9498 143.312 57.9674 143.4 57.9849 143.505C58.0902 143.768 58.1253 144.032 58.1253 144.295C58.1253 144.663 57.9849 144.962 57.7217 145.172C57.4584 145.383 57.1425 145.488 56.7564 145.488C56.4054 145.488 56.1071 145.365 55.8789 145.085C55.6508 144.821 55.5279 144.505 55.5279 144.119C55.5279 143.417 55.7912 142.856 56.3352 142.435C56.8793 142.013 57.5462 141.715 58.3184 141.522C59.1081 141.329 59.8628 141.241 60.5823 141.241C62.1618 141.241 63.3025 141.61 64.0221 142.329C64.7416 143.049 65.1101 144.242 65.1101 145.892V151.192C65.1101 152.052 65.1803 152.719 65.3032 153.193C65.426 153.667 65.7244 153.895 66.1631 153.895C66.4615 153.895 66.7072 153.789 66.9353 153.579C67.1459 153.368 67.3039 153.122 67.3741 152.877L67.9006 153.087C67.7426 153.649 67.4618 154.105 67.0582 154.439C66.6545 154.772 66.0929 154.948 65.391 154.948C64.531 154.948 63.9343 154.702 63.6009 154.193C63.285 153.684 63.0919 153.035 63.0568 152.21C62.5128 153.087 61.8108 153.772 60.9684 154.246C60.126 154.719 59.1959 154.948 58.1955 154.948L58.2482 154.93ZM57.2829 152.052C57.2829 152.596 57.4409 153.035 57.7743 153.368C58.0902 153.684 58.5816 153.86 59.1959 153.86C59.7574 153.86 60.319 153.719 60.828 153.456C61.3545 153.175 61.8108 152.824 62.1969 152.403C62.583 151.982 62.8813 151.525 63.0744 151.034V146.734C62.425 147.015 61.7581 147.331 61.0912 147.7C60.4068 148.068 59.7925 148.472 59.2134 148.928C58.6342 149.384 58.1604 149.858 57.8094 150.385C57.4584 150.911 57.2829 151.473 57.2829 152.087V152.052Z" fill="black"/>
<path d="M76.8851 154.702V153.965L77.4818 153.912C78.1663 153.842 78.6928 153.737 79.0613 153.596C79.4299 153.474 79.6756 153.193 79.816 152.772C79.9564 152.35 80.0265 151.648 80.0265 150.701V137.626C80.0265 136.643 79.9564 135.941 79.816 135.538C79.6756 135.117 79.4299 134.853 79.0613 134.73C78.6928 134.608 78.1663 134.502 77.4818 134.415L76.8851 134.362V133.625L81.2375 133.713H84.8352C85.3617 133.713 85.976 133.73 86.6955 133.765C87.3975 133.8 88.117 133.906 88.8366 134.046C89.5561 134.186 90.223 134.432 90.8373 134.783C91.4515 135.134 91.9605 135.59 92.3465 136.205C92.7326 136.801 92.9257 137.573 92.9257 138.521C92.9257 139.469 92.7151 140.206 92.2939 140.855C91.8727 141.505 91.3462 142.031 90.6969 142.452C90.0651 142.874 89.3982 143.207 88.7137 143.435C89.6614 143.523 90.5389 143.733 91.3638 144.084C92.1886 144.435 92.8555 144.98 93.382 145.717C93.9085 146.454 94.1542 147.436 94.1542 148.683C94.1542 149.823 93.926 150.771 93.4873 151.561C93.0485 152.333 92.4518 152.947 91.6972 153.386C90.9426 153.825 90.1177 154.141 89.2227 154.351C88.3276 154.562 87.3975 154.649 86.4849 154.649H81.2375L76.8851 154.737V154.702ZM85.7302 134.52H82.3958V143.207H86.3094C87.5203 143.207 88.468 142.821 89.1525 142.031C89.8369 141.241 90.1704 140.066 90.1704 138.504C90.1704 137.38 89.9949 136.538 89.6439 135.976C89.2929 135.415 88.7839 135.029 88.1346 134.836C87.4677 134.643 86.6779 134.537 85.7302 134.537V134.52ZM84.8528 153.79H86.5024C87.4852 153.79 88.3452 153.649 89.0823 153.386C89.8194 153.105 90.381 152.596 90.7846 151.877C91.1883 151.14 91.3813 150.087 91.3813 148.718C91.3813 147.349 91.1532 146.383 90.6969 145.717C90.2406 145.05 89.5561 144.611 88.6435 144.383C87.7309 144.155 86.5551 144.067 85.1336 144.067H82.3958V150.841C82.3958 152.017 82.5888 152.807 82.9925 153.21C83.3961 153.614 84.0104 153.807 84.8352 153.807L84.8528 153.79Z" fill="black"/>
<path d="M103.702 154.93C102.403 154.93 101.28 154.649 100.315 154.088C99.3496 153.526 98.5949 152.754 98.0684 151.754C97.5244 150.753 97.2611 149.63 97.2611 148.349C97.2611 146.98 97.5595 145.751 98.1386 144.681C98.7353 143.61 99.5251 142.768 100.508 142.154C101.491 141.54 102.596 141.224 103.79 141.224C105.299 141.224 106.492 141.715 107.335 142.663C108.195 143.628 108.616 144.892 108.616 146.471C108.616 146.699 108.616 146.91 108.581 147.068C108.563 147.226 108.546 147.331 108.528 147.384H99.6303C99.6128 147.664 99.5952 147.928 99.5952 148.208C99.5952 149.244 99.7532 150.209 100.104 151.104C100.438 151.999 100.947 152.701 101.613 153.245C102.298 153.772 103.123 154.035 104.106 154.035C105.036 154.035 105.843 153.772 106.563 153.245C107.282 152.719 107.826 151.947 108.23 150.929L108.932 151.192C108.107 153.666 106.352 154.895 103.684 154.895L103.702 154.93ZM103.79 141.961C102.579 141.961 101.631 142.399 100.947 143.259C100.262 144.119 99.8585 145.278 99.7006 146.699H103.439C104.316 146.699 105.001 146.594 105.457 146.383C105.913 146.173 106.229 145.927 106.405 145.611C106.58 145.295 106.65 145.014 106.65 144.716C106.65 143.856 106.352 143.172 105.773 142.68C105.176 142.189 104.527 141.943 103.807 141.943L103.79 141.961Z" fill="black"/>
<path d="M114.706 154.93C113.758 154.93 112.986 154.684 112.372 154.211C111.757 153.737 111.442 153.052 111.442 152.192C111.442 151.332 111.828 150.56 112.582 149.876C113.354 149.191 114.25 148.577 115.267 148.033C116.04 147.594 116.794 147.226 117.566 146.91C118.339 146.594 118.988 146.331 119.532 146.12V145.172C119.532 144.102 119.339 143.295 118.935 142.75C118.532 142.224 117.777 141.961 116.654 141.961C116.127 141.961 115.601 142.031 115.092 142.171C114.583 142.312 114.32 142.557 114.32 142.944C114.32 143.014 114.32 143.101 114.355 143.207C114.39 143.312 114.407 143.4 114.425 143.505C114.53 143.768 114.565 144.032 114.565 144.295C114.565 144.663 114.443 144.962 114.162 145.172C113.899 145.383 113.583 145.488 113.197 145.488C112.846 145.488 112.547 145.365 112.319 145.085C112.091 144.821 111.968 144.505 111.968 144.119C111.968 143.417 112.231 142.856 112.775 142.435C113.319 142.013 113.986 141.715 114.758 141.522C115.548 141.329 116.303 141.241 117.022 141.241C118.602 141.241 119.743 141.61 120.462 142.329C121.182 143.049 121.55 144.242 121.55 145.892V151.192C121.55 152.052 121.62 152.719 121.743 153.193C121.866 153.667 122.164 153.895 122.603 153.895C122.902 153.895 123.147 153.789 123.375 153.579C123.586 153.368 123.744 153.122 123.814 152.877L124.341 153.087C124.183 153.649 123.902 154.105 123.498 154.439C123.095 154.772 122.533 154.948 121.831 154.948C120.971 154.948 120.374 154.702 120.041 154.193C119.725 153.684 119.532 153.035 119.497 152.21C118.953 153.087 118.251 153.772 117.408 154.246C116.566 154.719 115.636 154.948 114.636 154.948L114.706 154.93ZM113.741 152.052C113.741 152.596 113.899 153.035 114.232 153.368C114.548 153.684 115.039 153.86 115.653 153.86C116.215 153.86 116.777 153.719 117.286 153.456C117.812 153.175 118.268 152.824 118.655 152.403C119.041 151.982 119.339 151.525 119.532 151.034V146.734C118.883 147.015 118.216 147.331 117.549 147.7C116.864 148.068 116.25 148.472 115.671 148.928C115.092 149.384 114.618 149.858 114.267 150.385C113.916 150.911 113.741 151.473 113.741 152.087V152.052Z" fill="black"/>
<path d="M130.834 154.93C129.553 154.93 128.552 154.614 127.815 153.965C127.078 153.316 126.709 152.385 126.709 151.122V145.401C126.709 144.523 126.657 143.891 126.534 143.505C126.411 143.119 126.2 142.873 125.902 142.751C125.604 142.628 125.165 142.54 124.586 142.487L124.112 142.435V141.75L127.727 141.838L128.763 141.803V150.999C128.763 151.964 129.008 152.701 129.5 153.21C129.991 153.719 130.658 153.982 131.501 153.982C132.22 153.982 132.869 153.825 133.431 153.491C133.993 153.175 134.466 152.754 134.87 152.245C135.274 151.736 135.59 151.21 135.835 150.683V145.418C135.835 144.541 135.783 143.909 135.66 143.523C135.537 143.137 135.326 142.891 135.028 142.768C134.73 142.645 134.291 142.558 133.712 142.505L133.238 142.452V141.768L136.853 141.856L137.889 141.82V151.332C137.889 152.087 137.976 152.631 138.169 153C138.363 153.368 138.626 153.596 138.994 153.719C139.363 153.842 139.802 153.895 140.328 153.895V154.579C139.521 154.579 138.784 154.579 138.117 154.614C137.45 154.649 136.678 154.72 135.818 154.878V152.175C135.625 152.491 135.414 152.772 135.204 153C134.695 153.561 134.08 154.035 133.343 154.404C132.606 154.772 131.764 154.948 130.816 154.948L130.834 154.93Z" fill="black"/>
<path d="M146.647 154.93C145.682 154.93 144.91 154.649 144.313 154.07C143.717 153.491 143.418 152.543 143.418 151.227V142.505H141.242V141.768L142.032 141.715C142.839 141.662 143.453 141.329 143.875 140.732C144.296 140.136 144.577 139.293 144.717 138.205H145.489V141.768H149.262V142.505H145.489V151.35C145.489 153.087 146.103 153.947 147.314 153.947C147.823 153.947 148.244 153.772 148.543 153.438C148.841 153.105 149.14 152.666 149.403 152.157L150.052 152.491C149.929 152.789 149.789 153.052 149.631 153.298C149.455 153.544 149.297 153.754 149.14 153.93C148.806 154.298 148.42 154.562 147.999 154.719C147.578 154.877 147.121 154.948 146.665 154.948L146.647 154.93Z" fill="black"/>
<path d="M151.456 163.266C150.789 163.266 150.28 163.108 149.947 162.775C149.613 162.459 149.438 162.091 149.438 161.704C149.438 161.318 149.578 160.985 149.859 160.722C150.14 160.458 150.508 160.318 150.929 160.318C151.21 160.318 151.421 160.371 151.579 160.458C151.737 160.546 151.877 160.634 152.018 160.739C152.158 160.845 152.316 160.932 152.491 161.055C152.667 161.16 152.878 161.213 153.106 161.213C153.457 161.213 153.825 161.073 154.211 160.792C154.597 160.511 154.984 159.949 155.405 159.09L157.353 154.913L152.456 144.19C152.263 143.733 152.053 143.365 151.807 143.067C151.579 142.768 151.21 142.593 150.719 142.54L150.034 142.452V141.768L153.106 141.856L156.089 141.768V142.452L155.668 142.505C154.843 142.628 154.439 142.926 154.439 143.418C154.439 143.646 154.545 144.014 154.755 144.471L158.441 152.543L162.126 144.611C162.337 144.12 162.442 143.733 162.442 143.47C162.442 142.944 161.968 142.61 161.003 142.505L160.529 142.452V141.768L163.355 141.856L165.706 141.768V142.452L165.268 142.505C164.548 142.61 164.022 142.873 163.688 143.295C163.372 143.733 163.056 144.26 162.793 144.892L156.142 159.423C155.826 160.09 155.457 160.722 155.036 161.301C154.615 161.898 154.106 162.371 153.527 162.722C152.948 163.091 152.246 163.266 151.421 163.266H151.456Z" fill="black"/>
<path d="M73.7269 59.4765C73.7971 59.3186 69.8835 59.1606 69.8484 59.1606C64.2676 59.1606 58.1076 59.9504 52.6846 58.3709C42.9445 55.4927 35.8543 46.8757 33.6255 37.1356C31.3967 27.3603 33.9414 16.6373 40.8034 9.2313C47.1564 2.36931 54.6678 0.947766 63.4954 0.947766C64.057 0.947766 67.0931 1.19346 67.3739 0.596767C67.4441 0.438819 63.5305 0.245769 63.4954 0.245769C54.931 0.245769 46.2614 -0.245623 38.6974 4.52794C27.9043 11.3373 23.078 24.8858 25.886 37.1356C28.4834 48.5079 37.504 57.6513 49.1571 59.4063C55.8963 60.4242 63.0566 59.8626 69.8484 59.8626C70.41 59.8626 73.4461 60.0908 73.7269 59.4941V59.4765Z" fill="black"/>
<path d="M123.815 62.5477C115.847 58.1778 106.335 59.1606 97.56 59.1606C96.9984 59.1606 93.9622 58.9149 93.6814 59.5116C93.6112 59.6695 97.5249 59.8626 97.56 59.8626C100.912 59.8626 104.457 59.5116 107.792 59.8626C114.425 60.5645 120.62 64.7414 124.674 69.8835C133.274 80.8171 133.432 97.156 125.113 108.283C121.094 113.653 114.741 118.163 107.879 118.865C105.159 119.146 102.246 118.865 99.508 118.865H87.9602V0.526494C87.7145 0.0175485 80.4839 0 79.0448 0C78.1323 0 75.1663 0.157953 75.1663 0.4914C75.1663 0.719549 78.9045 0.701997 79.9574 0.701997V118.883H77.3776C76.816 118.883 73.7799 118.637 73.4991 119.234C73.4289 119.392 77.3425 119.585 77.3776 119.585H97.4897C103.966 119.585 110.968 120.181 117.339 118.69C142.979 112.635 146.243 74.8326 123.832 62.5652H123.815V62.5477Z" fill="black"/>
</svg>
