<svg width="168" height="39" viewBox="0 0 168 39" fill="none" xmlns="http://www.w3.org/2000/svg">
<path d="M2.11995 38.04C0.599951 37.04 -4.90546e-05 35.36 -4.90546e-05 33.36C-4.90546e-05 26.08 8.11995 13.96 12.72 8.64C15.64 5.24 18.96 1.88 23.24 0.400002C23.96 0.120004 24.64 2.86102e-06 25.28 2.86102e-06C27 2.86102e-06 28.16 1.04 28.16 3C28.16 3.64 28.04 4.36 27.76 5.2C26.08 10.44 23.32 14.8 19.8 17.84C19.6 18.04 19.36 18.16 19.16 18.16C19.04 18.16 18.96 18.12 18.84 18.08C18.64 18 18.48 17.8 18.48 17.56C18.44 17.2 18.64 16.84 18.92 16.64L19.12 16.52C19.2 16.48 19.4 16.36 19.4 16.28C19.44 16.12 19.64 15.96 19.8 15.96H19.88C20.08 16 20.24 16.16 20.24 16.36C23.2 13.44 25.52 9.52 26.96 4.96C27.2 4.2 27.32 3.56 27.32 3C27.32 1.56 26.56 0.800004 25.24 0.800004C24.72 0.800004 24.12 0.920003 23.48 1.16C19.4 2.6 16.2 5.84 13.32 9.16C8.31995 14.96 0.839951 26.72 0.839951 33.36C0.839951 35.12 1.35995 36.52 2.59995 37.36C3.15995 37.76 3.87995 37.92 4.63995 37.92C11.48 37.92 25.68 25.04 29.88 20.88C29.96 20.8 30.08 20.76 30.2 20.76C30.28 20.76 30.4 20.8 30.48 20.88C30.56 20.96 30.6 21.08 30.6 21.16C30.6 21.28 30.56 21.4 30.48 21.48C25.84 26 11.92 38.72 4.59995 38.72C3.63995 38.72 2.79995 38.52 2.11995 38.04ZM40.5781 20.92C40.6581 20.84 40.7781 20.8 40.8581 20.8C41.0981 20.8 41.2981 21.04 41.2981 21.28C41.2981 21.36 41.2181 21.48 41.1381 21.56C39.6981 22.88 36.5781 24 34.3381 24C32.9381 24 31.8581 23.52 31.9381 22.28C31.0581 23.16 29.1781 25.04 28.0181 25.04C27.8181 25.04 27.6181 25 27.4581 24.84C27.2581 24.68 27.1781 24.4 27.1781 24.12C27.1781 22.56 29.3781 19.8 31.6181 19.8C32.0181 19.8 32.3781 19.88 32.7781 20.08C32.8181 20.04 32.8581 20 32.8981 20C32.8981 19.96 33.2181 19.64 33.2181 19.64C33.2981 19.52 33.4181 19.48 33.5381 19.48C33.7781 19.48 33.9781 19.68 33.9781 19.88C33.9781 20 33.9381 20.08 33.8581 20.2C33.1381 21.16 32.8181 21.88 32.8181 22.32C32.8181 22.96 33.3781 23.24 34.1781 23.24C36.0981 23.24 39.4181 21.88 40.5781 20.92ZM28.0181 24.24C28.6981 24.56 31.6981 21.36 32.1781 20.8C31.9781 20.72 31.7781 20.68 31.5381 20.68C29.5781 20.68 27.6181 23.76 28.0181 24.24ZM39.2606 28.24C38.7806 28.24 38.5006 28 38.4206 27.88C38.3006 27.72 38.2606 27.52 38.2606 27.28C38.2606 25.64 41.7406 23.2 41.7406 22.68C41.7406 22.56 41.5406 22.32 40.5006 21.76C39.8606 21.44 39.6206 20.92 39.6206 20.44C39.6206 19.4 40.7006 18.28 41.5806 18.28C42.0206 18.28 42.3406 18.56 42.3406 18.96C42.3406 19.32 42.0606 19.92 40.8606 21C42.1406 21.68 42.5806 22.12 42.5806 22.76C42.5806 23.84 40.9006 24.6 39.2606 26.76C39.0606 27 39.0606 27.2 39.0606 27.28V27.36C39.5806 28 47.3406 23.04 49.9806 20.92C50.0606 20.84 50.1806 20.8 50.3006 20.8C50.4206 20.8 50.5006 20.84 50.5806 20.96C50.7406 21.12 50.7006 21.4 50.5406 21.52C48.6206 22.96 41.1406 28.24 39.2606 28.24ZM51.3759 26.16C50.5759 26.16 49.9359 25.96 49.4559 25.52C48.9359 25.04 48.6559 24.32 48.6559 23.4C48.6559 21.08 50.3359 17.44 53.6159 12.68C53.6959 12.56 53.8159 12.48 53.9359 12.48C54.0159 12.48 54.0959 12.52 54.1759 12.56C54.2959 12.64 54.3759 12.76 54.3759 12.92C54.3759 13 54.3359 13.08 54.2959 13.16C50.4159 18.8 49.5359 21.8 49.5359 23.4C49.5359 24.28 49.8159 24.72 50.0159 24.92C50.3359 25.2 50.7759 25.32 51.3359 25.32C53.2959 25.32 56.5759 23.68 59.8559 20.92C60.0159 20.76 60.2959 20.8 60.4559 20.96C60.5759 21.16 60.5759 21.4 60.3759 21.56C56.8959 24.52 53.5759 26.16 51.3759 26.16ZM70.5609 20.92C70.6409 20.84 70.7609 20.8 70.8409 20.8C71.0809 20.8 71.2809 21.04 71.2809 21.28C71.2809 21.36 71.2009 21.48 71.1209 21.56C69.6809 22.88 66.5609 24 64.3209 24C62.9209 24 61.8409 23.52 61.9209 22.28C61.0409 23.16 59.1609 25.04 58.0009 25.04C57.8009 25.04 57.6009 25 57.4409 24.84C57.2409 24.68 57.1609 24.4 57.1609 24.12C57.1609 22.56 59.3609 19.8 61.6009 19.8C62.0009 19.8 62.3609 19.88 62.7609 20.08C62.8009 20.04 62.8409 20 62.8809 20C62.8809 19.96 63.2009 19.64 63.2009 19.64C63.2809 19.52 63.4009 19.48 63.5209 19.48C63.7609 19.48 63.9609 19.68 63.9609 19.88C63.9609 20 63.9209 20.08 63.8409 20.2C63.1209 21.16 62.8009 21.88 62.8009 22.32C62.8009 22.96 63.3609 23.24 64.1609 23.24C66.0809 23.24 69.4009 21.88 70.5609 20.92ZM58.0009 24.24C58.6809 24.56 61.6809 21.36 62.1609 20.8C61.9609 20.72 61.7609 20.68 61.5209 20.68C59.5609 20.68 57.6009 23.76 58.0009 24.24ZM103.483 15.64C103.483 23.8 86.1634 35.56 73.1234 37.96C73.0434 38.12 73.0034 38.28 72.9234 38.44C72.8434 38.68 72.6434 38.8 72.4834 38.8C72.2434 38.8 71.9634 38.6 72.0034 38.32V38.2V38.16C70.7634 38.36 69.2834 38.56 67.8434 38.56C65.8034 38.56 64.0034 38.16 63.4034 36.76C63.2834 36.48 63.2434 36.16 63.2434 35.88C63.2434 33.6 67.0434 31.88 69.8434 30.64C71.2834 30 72.7634 29.44 74.2434 28.92C75.5634 25.24 77.4034 21.72 79.6434 18.48C79.7634 18.32 79.8834 18.24 80.0434 18.24C80.1634 18.24 80.2434 18.28 80.3234 18.36L85.6034 5.8C84.1634 6.84 82.7634 8.04 81.6034 9.32C81.4834 9.44 81.4034 9.48 81.2834 9.48C81.0434 9.48 80.8034 9.2 80.8034 8.96C80.8034 8.84 80.8434 8.72 80.9234 8.64C82.5234 6.88 84.3634 5.32 86.3234 4.04C87.0434 2.32 87.6034 1.08 87.8434 0.480004C87.9234 0.240005 88.1234 0.0800042 88.4034 0.160003C88.6434 0.200003 88.8434 0.480004 88.7634 0.720003L87.7234 3.2C89.5234 2.2 93.6034 0.320004 96.4834 0.0400023C96.6834 2.86102e-06 96.9234 2.86102e-06 97.0834 2.86102e-06C98.8434 2.86102e-06 99.6434 0.840004 99.6434 1.8C99.6434 2.32 99.4434 2.84 99.0434 3.28C97.8034 4.68 94.6034 6.72 88.0434 11.12C90.4434 10.32 93.1234 9.72 95.6034 9.72C97.9634 9.72 100.083 10.24 101.563 11.56C102.883 12.76 103.483 14.12 103.483 15.64ZM92.4034 28.44C96.6434 25.64 102.403 20.4 102.403 15.76C102.403 15.2 102.323 14.64 102.123 14.08C101.283 11.6 98.7634 10.68 95.7234 10.68C91.9634 10.68 87.4834 12.08 84.5634 13.56C84.4834 13.6 84.4034 13.6 84.3234 13.6C84.0434 13.6 83.8434 13.36 83.8434 13.12C83.8434 13.08 83.8434 13 83.8834 12.96C83.9234 12.84 83.9634 12.72 84.1234 12.6C94.0034 5.92 97.0434 3.96 98.0434 3.08C98.4434 2.72 98.6834 2.28 98.6834 1.92C98.6834 1.36 98.1634 0.880003 96.9634 0.920003C94.7634 0.960002 90.8034 2.44 87.0434 4.84C82.6834 15.16 83.2834 13.84 77.3234 27.96C81.5234 26.72 85.8834 25.84 90.2034 24.96H90.2834C90.4834 24.96 90.6834 25.08 90.7634 25.32C90.7634 25.36 90.8034 25.4 90.8034 25.44C90.8034 25.64 90.6434 25.84 90.4434 25.88C86.3234 26.72 82.1634 27.56 78.1234 28.72C77.8034 28.8 77.3634 28.92 76.8434 29.08C75.9234 31.32 74.8434 33.88 73.5634 36.92C78.6034 35.8 85.2834 33.2 92.4034 28.44ZM79.3634 20.64C77.7634 23.2 76.4434 25.84 75.4034 28.56L76.1634 28.32C77.1634 25.92 78.2434 23.32 79.3634 20.64ZM75.6834 29.48C75.4434 29.52 75.2434 29.6 75.0034 29.68C74.4834 31.16 74.0434 32.68 73.6834 34.16L75.6834 29.48ZM64.2434 36.28C64.4834 37.12 65.8834 37.6 68.1634 37.6C69.2834 37.6 70.6434 37.48 72.1634 37.2C72.5234 34.76 73.0834 32.4 73.8434 30.08C69.4034 31.64 63.6434 34.16 64.2434 36.28ZM128.35 21C128.43 21.08 128.43 21.16 128.43 21.24C128.43 21.36 128.35 21.52 128.27 21.6C127.27 22.4 125.51 23.24 123.75 23.68C123.15 23.84 122.23 24 121.39 24C120.63 24 119.95 23.88 119.51 23.44C119.19 23.12 119.07 22.76 119.07 22.32C117.79 23.64 116.23 25 115.31 25.08H115.23C114.95 25.08 114.75 24.96 114.63 24.84C114.43 24.64 114.35 24.4 114.35 24.08C114.35 23.72 114.47 23.28 114.71 22.84H114.67C112.31 24.08 108.59 25.72 106.19 25.72C105.99 25.72 105.79 25.72 105.59 25.68C104.91 25.6 104.39 25.32 104.07 24.84C103.75 24.36 103.63 23.88 103.63 23.36C103.63 22.44 104.03 21.56 104.51 20.92C105.43 19.76 106.55 19.28 107.39 19.28C107.99 19.28 108.39 19.56 108.51 20C108.55 20.08 108.55 20.2 108.55 20.28C108.55 20.6 108.43 20.88 108.15 21.08C107.79 21.36 107.23 21.52 106.63 21.52C106.19 21.52 105.75 21.44 105.35 21.28C105.27 21.32 105.23 21.4 105.19 21.44C104.79 22 104.43 22.72 104.43 23.4C104.43 23.76 104.51 24.08 104.71 24.36C104.91 24.64 105.27 24.8 105.71 24.84C105.87 24.88 106.03 24.88 106.23 24.88C109.23 24.88 115.03 21.88 116.07 20.96C116.87 20.28 117.79 19.8 118.71 19.8C119.15 19.8 119.55 19.92 119.95 20.12C120.11 19.92 120.23 19.76 120.35 19.64C120.51 19.44 120.79 19.44 120.95 19.56C121.15 19.72 121.15 19.96 121.03 20.16C120.31 21.12 119.91 21.88 119.91 22.36C119.91 22.56 119.99 22.72 120.11 22.84C120.35 23.08 120.79 23.16 121.43 23.16C122.03 23.16 122.75 23.08 123.55 22.88C125.23 22.44 126.87 21.68 127.75 20.92C127.83 20.84 127.95 20.84 128.03 20.84C128.15 20.84 128.27 20.88 128.35 21ZM107.35 20.12C107.03 20.12 106.55 20.28 106.07 20.6C106.27 20.64 106.47 20.68 106.67 20.68C107.07 20.68 107.43 20.56 107.63 20.4C107.75 20.32 107.75 20.24 107.71 20.2C107.71 20.2 107.59 20.12 107.35 20.12ZM117.79 22.4C118.31 21.88 118.87 21.28 119.35 20.76C119.15 20.68 118.95 20.64 118.75 20.64C118.15 20.64 117.47 20.88 116.75 21.56L116.71 21.6C116.67 21.6 116.67 21.64 116.67 21.64C116.51 21.76 116.35 21.92 116.23 22.08C115.27 23.12 115.07 24.08 115.19 24.24C115.23 24.24 115.79 24.36 117.79 22.4ZM138.313 20.96C138.353 21.04 138.393 21.12 138.393 21.2C138.393 21.32 138.353 21.44 138.233 21.52C134.513 24.48 131.273 26 129.113 26C127.513 26 126.553 25.12 126.553 23.36C126.553 21.84 127.233 19.64 128.873 16.72C128.273 16.68 127.673 16.68 127.113 16.68C126.193 16.68 125.393 16.72 124.833 16.96C124.793 16.96 124.753 17 124.673 17C124.513 17 124.353 16.88 124.273 16.72V16.6C124.273 16.44 124.353 16.24 124.513 16.2C125.233 15.92 126.233 15.84 127.273 15.84C127.993 15.84 128.713 15.88 129.353 15.92C129.993 14.88 130.753 13.84 131.473 12.64C131.593 12.44 131.833 12.4 132.033 12.52C132.233 12.64 132.273 12.92 132.153 13.12C131.513 14.2 130.833 15.08 130.313 15.92C131.433 15.96 132.513 15.88 133.393 15.72H133.473C133.673 15.72 133.833 15.88 133.913 16.04V16.12C133.913 16.32 133.753 16.52 133.593 16.56C132.473 16.8 131.153 16.8 129.833 16.76C127.873 20.12 127.353 22.16 127.353 23.36C127.353 24.28 127.673 24.72 127.873 24.88C128.193 25.16 128.673 25.28 129.233 25.28C131.193 25.28 134.433 23.64 137.713 20.88C137.793 20.84 137.913 20.8 137.993 20.8C138.113 20.8 138.233 20.84 138.313 20.96ZM136.336 28.24C135.856 28.24 135.576 28 135.496 27.88C135.376 27.72 135.336 27.52 135.336 27.28C135.336 25.64 138.816 23.2 138.816 22.68C138.816 22.56 138.616 22.32 137.576 21.76C136.936 21.44 136.696 20.92 136.696 20.44C136.696 19.4 137.776 18.28 138.656 18.28C139.096 18.28 139.416 18.56 139.416 18.96C139.416 19.32 139.136 19.92 137.936 21C139.216 21.68 139.656 22.12 139.656 22.76C139.656 23.84 137.976 24.6 136.336 26.76C136.136 27 136.136 27.2 136.136 27.28V27.36C136.656 28 144.416 23.04 147.056 20.92C147.136 20.84 147.256 20.8 147.376 20.8C147.496 20.8 147.576 20.84 147.656 20.96C147.816 21.12 147.776 21.4 147.616 21.52C145.696 22.96 138.216 28.24 136.336 28.24ZM148.131 19.24C147.851 19.24 147.651 19 147.651 18.76C147.651 18.48 147.851 18.28 148.131 18.28C148.371 18.28 148.611 18.48 148.611 18.76C148.611 19 148.371 19.24 148.131 19.24ZM147.691 24.8C146.851 24.8 146.211 24.64 145.771 24.2C145.491 23.92 145.371 23.64 145.371 23.24C145.371 22.6 145.771 21.72 146.371 20.72C146.451 20.6 146.571 20.56 146.691 20.56C146.771 20.56 146.851 20.6 146.931 20.64C147.051 20.76 147.131 20.88 147.131 21C147.131 21.08 147.091 21.16 147.051 21.24C146.491 21.96 146.171 22.68 146.171 23.16C146.171 23.32 146.211 23.48 146.331 23.6C146.611 23.88 147.091 24 147.691 24C150.091 24 154.491 22.04 155.611 20.92C155.771 20.76 156.051 20.8 156.211 20.96C156.371 21.12 156.331 21.4 156.171 21.56C155.131 22.6 150.571 24.8 147.691 24.8ZM167.706 20.96C167.746 21.04 167.786 21.12 167.786 21.2C167.786 21.36 167.706 21.48 167.586 21.56C166.386 22.28 164.226 22.52 161.066 23.56C161.106 27.72 154.786 37.04 150.666 37.04C149.066 37.04 148.306 36.12 148.306 34.76C148.306 31.52 152.506 25.72 160.186 22.96C159.986 22.16 159.386 21.92 158.626 21.92C158.266 21.92 157.826 22 157.426 22.08C157.346 22.12 157.306 22.16 157.266 22.16H157.106C156.906 22.16 156.746 22.04 156.666 21.84C156.626 21.72 156.666 21.6 156.746 21.52C156.786 21.44 156.866 21.4 156.946 21.36C159.106 20.24 160.106 19.2 160.106 18.64C160.106 18.48 160.066 18.36 159.906 18.32C159.786 18.28 159.706 18.24 159.586 18.24C158.386 18.24 156.866 20.32 155.346 21.56C155.266 21.64 155.186 21.64 155.106 21.64C154.986 21.64 154.866 21.6 154.746 21.48C154.666 21.4 154.626 21.32 154.626 21.24C154.626 21.12 154.706 21 154.786 20.92C156.106 19.6 157.906 17.44 159.546 17.44C160.386 17.44 160.946 17.96 160.946 18.72C160.946 19.4 160.466 20.28 159.226 21.12C160.066 21.28 160.706 21.72 160.946 22.68C163.906 21.76 166.186 21.56 167.106 20.92C167.186 20.84 167.266 20.8 167.346 20.8C167.506 20.8 167.626 20.88 167.706 20.96ZM150.666 36.16C154.146 36.16 159.986 27.72 160.226 23.84C153.106 26.48 149.106 31.96 149.106 34.6C149.106 35.56 149.626 36.16 150.666 36.16Z" fill="#888888"/>
</svg>
