<svg width="618" height="136" viewBox="0 0 618 136" fill="none" xmlns="http://www.w3.org/2000/svg">
<path d="M7.42001 133.14C2.10001 129.64 1.14143e-05 123.76 1.14143e-05 116.76C1.14143e-05 91.28 28.42 48.86 44.52 30.24C54.74 18.34 66.36 6.58001 81.34 1.40001C83.86 0.420013 86.24 1.00136e-05 88.48 1.00136e-05C94.5 1.00136e-05 98.56 3.64001 98.56 10.5C98.56 12.74 98.14 15.26 97.16 18.2C91.28 36.54 81.62 51.8 69.3 62.44C68.6 63.14 67.76 63.56 67.06 63.56C66.64 63.56 66.36 63.42 65.94 63.28C65.24 63 64.68 62.3 64.68 61.46C64.54 60.2 65.24 58.94 66.22 58.24L66.92 57.82C67.2 57.68 67.9 57.26 67.9 56.98C68.04 56.42 68.74 55.86 69.3 55.86H69.58C70.28 56 70.84 56.56 70.84 57.26C81.2 47.04 89.32 33.32 94.36 17.36C95.2 14.7 95.62 12.46 95.62 10.5C95.62 5.46001 92.96 2.80002 88.34 2.80002C86.52 2.80002 84.42 3.22001 82.18 4.06002C67.9 9.10001 56.7 20.44 46.62 32.06C29.12 52.36 2.94001 93.52 2.94001 116.76C2.94001 122.92 4.76001 127.82 9.10001 130.76C11.06 132.16 13.58 132.72 16.24 132.72C40.18 132.72 89.88 87.64 104.58 73.08C104.86 72.8 105.28 72.66 105.7 72.66C105.98 72.66 106.4 72.8 106.68 73.08C106.96 73.36 107.1 73.78 107.1 74.06C107.1 74.48 106.96 74.9 106.68 75.18C90.44 91 41.72 135.52 16.1 135.52C12.74 135.52 9.80001 134.82 7.42001 133.14ZM144.823 73.22C145.103 72.94 145.523 72.8 145.803 72.8C146.643 72.8 147.343 73.64 147.343 74.48C147.343 74.76 147.063 75.18 146.783 75.46C141.743 80.08 130.823 84 122.983 84C118.083 84 114.303 82.32 114.583 77.98C111.503 81.06 104.923 87.64 100.863 87.64C100.163 87.64 99.4634 87.5 98.9034 86.94C98.2034 86.38 97.9234 85.4 97.9234 84.42C97.9234 78.96 105.623 69.3 113.463 69.3C114.863 69.3 116.123 69.58 117.523 70.28C117.663 70.14 117.803 70 117.943 70C117.943 69.86 119.063 68.74 119.063 68.74C119.343 68.32 119.763 68.18 120.183 68.18C121.023 68.18 121.723 68.88 121.723 69.58C121.723 70 121.583 70.28 121.303 70.7C118.783 74.06 117.663 76.58 117.663 78.12C117.663 80.36 119.623 81.34 122.423 81.34C129.143 81.34 140.763 76.58 144.823 73.22ZM100.863 84.84C103.243 85.96 113.743 74.76 115.423 72.8C114.723 72.52 114.023 72.38 113.183 72.38C106.323 72.38 99.4634 83.16 100.863 84.84ZM143.012 98.84C141.332 98.84 140.352 98 140.072 97.58C139.652 97.02 139.512 96.32 139.512 95.48C139.512 89.74 151.692 81.2 151.692 79.38C151.692 78.96 150.992 78.12 147.352 76.16C145.112 75.04 144.272 73.22 144.272 71.54C144.272 67.9 148.052 63.98 151.132 63.98C152.672 63.98 153.792 64.96 153.792 66.36C153.792 67.62 152.812 69.72 148.612 73.5C153.092 75.88 154.632 77.42 154.632 79.66C154.632 83.44 148.752 86.1 143.012 93.66C142.312 94.5 142.312 95.2 142.312 95.48V95.76C144.132 98 171.292 80.64 180.532 73.22C180.812 72.94 181.232 72.8 181.652 72.8C182.072 72.8 182.352 72.94 182.632 73.36C183.192 73.92 183.052 74.9 182.492 75.32C175.772 80.36 149.592 98.84 143.012 98.84ZM188.216 91.56C185.416 91.56 183.176 90.86 181.496 89.32C179.676 87.64 178.696 85.12 178.696 81.9C178.696 73.78 184.576 61.04 196.056 44.38C196.336 43.96 196.756 43.68 197.176 43.68C197.456 43.68 197.736 43.82 198.016 43.96C198.436 44.24 198.716 44.66 198.716 45.22C198.716 45.5 198.576 45.78 198.436 46.06C184.856 65.8 181.776 76.3 181.776 81.9C181.776 84.98 182.756 86.52 183.456 87.22C184.576 88.2 186.116 88.62 188.076 88.62C194.936 88.62 206.416 82.88 217.896 73.22C218.456 72.66 219.436 72.8 219.996 73.36C220.416 74.06 220.416 74.9 219.716 75.46C207.536 85.82 195.916 91.56 188.216 91.56ZM258.163 73.22C258.443 72.94 258.863 72.8 259.143 72.8C259.983 72.8 260.683 73.64 260.683 74.48C260.683 74.76 260.403 75.18 260.123 75.46C255.083 80.08 244.163 84 236.323 84C231.423 84 227.643 82.32 227.923 77.98C224.843 81.06 218.263 87.64 214.203 87.64C213.503 87.64 212.803 87.5 212.243 86.94C211.543 86.38 211.263 85.4 211.263 84.42C211.263 78.96 218.963 69.3 226.803 69.3C228.203 69.3 229.463 69.58 230.863 70.28C231.003 70.14 231.143 70 231.283 70C231.283 69.86 232.403 68.74 232.403 68.74C232.683 68.32 233.103 68.18 233.523 68.18C234.363 68.18 235.063 68.88 235.063 69.58C235.063 70 234.923 70.28 234.643 70.7C232.123 74.06 231.003 76.58 231.003 78.12C231.003 80.36 232.963 81.34 235.763 81.34C242.483 81.34 254.103 76.58 258.163 73.22ZM214.203 84.84C216.583 85.96 227.083 74.76 228.763 72.8C228.063 72.52 227.363 72.38 226.523 72.38C219.663 72.38 212.803 83.16 214.203 84.84ZM411.192 54.74C411.192 83.3 350.572 124.46 304.932 132.86C304.652 133.42 304.512 133.98 304.232 134.54C303.952 135.38 303.252 135.8 302.692 135.8C301.852 135.8 300.872 135.1 301.012 134.12V133.7V133.56C296.672 134.26 291.492 134.96 286.452 134.96C279.312 134.96 273.012 133.56 270.912 128.66C270.492 127.68 270.352 126.56 270.352 125.58C270.352 117.6 283.652 111.58 293.452 107.24C298.492 105 303.672 103.04 308.852 101.22C313.472 88.34 319.912 76.02 327.752 64.68C328.172 64.12 328.592 63.84 329.152 63.84C329.572 63.84 329.852 63.98 330.132 64.26L348.612 20.3C343.572 23.94 338.672 28.14 334.612 32.62C334.192 33.04 333.912 33.18 333.492 33.18C332.652 33.18 331.812 32.2 331.812 31.36C331.812 30.94 331.952 30.52 332.232 30.24C337.832 24.08 344.272 18.62 351.132 14.14C353.652 8.12001 355.612 3.78001 356.452 1.68001C356.732 0.840016 357.432 0.280015 358.412 0.560011C359.252 0.700009 359.952 1.68001 359.672 2.52001L356.032 11.2C362.332 7.70001 376.612 1.12001 386.692 0.140008C387.392 1.00136e-05 388.232 1.00136e-05 388.792 1.00136e-05C394.952 1.00136e-05 397.752 2.94001 397.752 6.30001C397.752 8.12001 397.052 9.94002 395.652 11.48C391.312 16.38 380.112 23.52 357.152 38.92C365.552 36.12 374.932 34.02 383.612 34.02C391.872 34.02 399.292 35.84 404.472 40.46C409.092 44.66 411.192 49.42 411.192 54.74ZM372.412 99.54C387.252 89.74 407.412 71.4 407.412 55.16C407.412 53.2 407.132 51.24 406.432 49.28C403.492 40.6 394.672 37.38 384.032 37.38C370.872 37.38 355.192 42.28 344.972 47.46C344.692 47.6 344.412 47.6 344.132 47.6C343.152 47.6 342.452 46.76 342.452 45.92C342.452 45.78 342.452 45.5 342.592 45.36C342.732 44.94 342.872 44.52 343.432 44.1C378.012 20.72 388.652 13.86 392.152 10.78C393.552 9.52001 394.392 7.98002 394.392 6.72002C394.392 4.76002 392.572 3.08001 388.372 3.22001C380.672 3.36001 366.812 8.54001 353.652 16.94C338.392 53.06 340.492 48.44 319.632 97.86C334.332 93.52 349.592 90.44 364.712 87.36H364.992C365.692 87.36 366.392 87.78 366.672 88.62C366.672 88.76 366.812 88.9 366.812 89.04C366.812 89.74 366.252 90.44 365.552 90.58C351.132 93.52 336.572 96.46 322.432 100.52C321.312 100.8 319.772 101.22 317.952 101.78C314.732 109.62 310.952 118.58 306.472 129.22C324.112 125.3 347.492 116.2 372.412 99.54ZM326.772 72.24C321.172 81.2 316.552 90.44 312.912 99.96L315.572 99.12C319.072 90.72 322.852 81.62 326.772 72.24ZM313.892 103.18C313.052 103.32 312.352 103.6 311.512 103.88C309.692 109.06 308.152 114.38 306.892 119.56L313.892 103.18ZM273.852 126.98C274.692 129.92 279.592 131.6 287.572 131.6C291.492 131.6 296.252 131.18 301.572 130.2C302.832 121.66 304.792 113.4 307.452 105.28C291.912 110.74 271.752 119.56 273.852 126.98ZM501.026 73.5C501.306 73.78 501.306 74.06 501.306 74.34C501.306 74.76 501.026 75.32 500.746 75.6C497.246 78.4 491.086 81.34 484.926 82.88C482.826 83.44 479.606 84 476.666 84C474.006 84 471.626 83.58 470.086 82.04C468.966 80.92 468.546 79.66 468.546 78.12C464.066 82.74 458.606 87.5 455.386 87.78H455.106C454.126 87.78 453.426 87.36 453.006 86.94C452.306 86.24 452.026 85.4 452.026 84.28C452.026 83.02 452.446 81.48 453.286 79.94H453.146C444.886 84.28 431.866 90.02 423.466 90.02C422.766 90.02 422.066 90.02 421.366 89.88C418.986 89.6 417.166 88.62 416.046 86.94C414.926 85.26 414.506 83.58 414.506 81.76C414.506 78.54 415.906 75.46 417.586 73.22C420.806 69.16 424.726 67.48 427.666 67.48C429.766 67.48 431.166 68.46 431.586 70C431.726 70.28 431.726 70.7 431.726 70.98C431.726 72.1 431.306 73.08 430.326 73.78C429.066 74.76 427.106 75.32 425.006 75.32C423.466 75.32 421.926 75.04 420.526 74.48C420.246 74.62 420.106 74.9 419.966 75.04C418.566 77 417.306 79.52 417.306 81.9C417.306 83.16 417.586 84.28 418.286 85.26C418.986 86.24 420.246 86.8 421.786 86.94C422.346 87.08 422.906 87.08 423.606 87.08C434.106 87.08 454.406 76.58 458.046 73.36C460.846 70.98 464.066 69.3 467.286 69.3C468.826 69.3 470.226 69.72 471.626 70.42C472.186 69.72 472.606 69.16 473.026 68.74C473.586 68.04 474.566 68.04 475.126 68.46C475.826 69.02 475.826 69.86 475.406 70.56C472.886 73.92 471.486 76.58 471.486 78.26C471.486 78.96 471.766 79.52 472.186 79.94C473.026 80.78 474.566 81.06 476.806 81.06C478.906 81.06 481.426 80.78 484.226 80.08C490.106 78.54 495.846 75.88 498.926 73.22C499.206 72.94 499.626 72.94 499.906 72.94C500.326 72.94 500.746 73.08 501.026 73.5ZM427.526 70.42C426.406 70.42 424.726 70.98 423.046 72.1C423.746 72.24 424.446 72.38 425.146 72.38C426.546 72.38 427.806 71.96 428.506 71.4C428.926 71.12 428.926 70.84 428.786 70.7C428.786 70.7 428.366 70.42 427.526 70.42ZM464.066 78.4C465.886 76.58 467.846 74.48 469.526 72.66C468.826 72.38 468.126 72.24 467.426 72.24C465.326 72.24 462.946 73.08 460.426 75.46L460.286 75.6C460.146 75.6 460.146 75.74 460.146 75.74C459.586 76.16 459.026 76.72 458.606 77.28C455.246 80.92 454.546 84.28 454.966 84.84C455.106 84.84 457.066 85.26 464.066 78.4ZM578.737 73.36C578.877 73.64 579.017 73.92 579.017 74.2C579.017 74.62 578.877 75.04 578.457 75.32C565.577 85.68 554.097 91 546.537 91C540.937 91 537.577 87.92 537.577 81.76C537.577 78.26 538.557 73.64 540.937 68.04C533.937 76.72 526.097 84.28 520.217 84.28C518.117 84.28 516.297 83.3 514.897 81.2C513.777 79.52 513.217 77 512.797 74.06C509.297 77.84 503.837 87.5 499.357 87.5C497.257 87.5 496.417 85.82 496.417 83.3C496.417 77.98 500.337 68.88 502.857 66.36C503.417 65.8 504.397 65.8 504.957 66.22C505.657 66.64 505.657 67.76 505.097 68.32C502.157 71.26 498.377 82.74 499.497 84.56C501.737 86.1 509.437 70.7 513.497 70.7C513.917 70.7 514.337 70.84 514.617 71.12C516.157 72.66 515.457 76.44 516.857 78.82C517.837 80.5 518.957 81.2 520.497 81.2C526.517 81.2 536.597 69.44 544.857 58.38C543.177 58.38 541.637 58.24 539.957 58.24C536.597 58.24 533.517 58.52 531.557 59.36C531.417 59.36 531.277 59.5 530.997 59.5C530.437 59.5 529.877 59.08 529.597 58.52V58.1C529.597 57.54 529.877 56.84 530.437 56.7C533.097 55.72 536.737 55.3 540.517 55.3C542.757 55.3 544.997 55.44 546.957 55.58C549.057 52.78 552.837 47.32 554.797 44.38C555.077 43.68 555.637 43.4 556.057 43.4C557.037 43.4 557.877 44.8 557.177 45.92C554.937 49.7 552.557 52.78 550.737 55.72C554.657 55.86 558.437 55.58 561.517 55.02H561.797C562.497 55.02 563.057 55.58 563.337 56.14V56.42C563.337 57.12 562.777 57.82 562.217 57.96C558.297 58.8 553.677 58.8 549.057 58.66C542.197 70.42 540.377 77.56 540.377 81.76C540.377 84.98 541.497 86.52 542.197 87.08C543.317 88.06 544.997 88.48 546.957 88.48C553.817 88.48 565.157 82.74 576.637 73.08C576.917 72.94 577.337 72.8 577.617 72.8C578.037 72.8 578.457 72.94 578.737 73.36ZM616.773 73.36C617.053 73.64 617.193 73.92 617.193 74.2C617.193 74.76 616.913 75.18 616.633 75.46C610.753 81.34 598.013 85.12 585.693 90.02C572.813 122.36 560.773 134.26 553.073 134.26H552.513C548.593 134.26 545.933 130.34 545.933 125.16C545.933 120.82 547.613 115.64 550.693 110.74C558.393 98.42 570.293 93.1 583.453 87.78C585.413 82.6 586.813 78.96 587.793 76.16C584.573 80.92 579.953 87.64 576.453 87.64C575.753 87.64 575.193 87.36 574.633 86.8C574.213 86.38 573.653 85.82 573.653 84C573.653 82.32 574.073 79.66 575.753 75.18C577.293 70.98 579.953 65.94 581.493 63.84C581.913 63.28 582.893 63.14 583.453 63.84C584.013 64.26 584.153 65.24 583.593 65.8C580.513 68.88 575.893 82.18 576.593 84.56C579.393 84.7 587.653 68.88 590.873 68.88C592.273 68.88 592.973 70 592.693 70.98C591.153 76.58 589.053 81.62 587.233 86.24C597.033 82.46 608.793 77.84 614.673 73.22C614.953 72.94 615.373 72.8 615.653 72.8C616.073 72.8 616.493 73.08 616.773 73.36ZM553.073 131.32C558.113 131.32 569.033 122.5 581.913 91.56C578.693 92.82 575.613 94.22 572.533 95.76C555.733 104.16 548.733 117.04 548.733 125.02C548.733 125.86 548.873 126.56 549.013 127.26C549.293 128.66 550.273 131.32 553.073 131.32Z" fill="white"/>
</svg>
